<svg id="Layer_1" data-name="Layer 1" xmlns="http://www.w3.org/2000/svg" viewBox="0 0 278.4 49.8"><title>reg365-logo-white</title><path d="M47.5,0,44.4,4.5A24.82,24.82,0,0,1,55,24.9,24.47,24.47,0,0,1,44.3,45.2l3.1,4.5A30.32,30.32,0,0,0,47.5,0ZM16.2,4.5,13,0a30.35,30.35,0,0,0,0,49.8l3.1-4.5A25.1,25.1,0,0,1,5.5,24.9,24.65,24.65,0,0,1,16.2,4.5ZM80.1,15.1a9.57,9.57,0,0,1,3.8.8A9.45,9.45,0,0,1,87,18l-2.8,2.8a6.41,6.41,0,0,0-1.9-1.3,5.54,5.54,0,0,0-4.6,0,5.86,5.86,0,0,0-1.9,1.3,6.41,6.41,0,0,0-1.3,1.9A5.93,5.93,0,0,0,74,25v9.8H70.1V15.1H74v2.1a11.74,11.74,0,0,1,2.7-1.5,11.09,11.09,0,0,1,3.4-.6Zm17.6,0a10.06,10.06,0,0,1,3.9.8,9.91,9.91,0,0,1,5.2,5.2,10,10,0,0,1,.8,3.8v2H92.2a8,8,0,0,0,.8,1.6,4.89,4.89,0,0,0,1.3,1.2,8,8,0,0,0,1.6.8,5.66,5.66,0,0,0,1.8.3,4.56,4.56,0,0,0,2.3-.5,5.86,5.86,0,0,0,1.9-1.3l2.8,2.8a9.45,9.45,0,0,1-3.1,2.1,10.06,10.06,0,0,1-3.9.8,9.57,9.57,0,0,1-3.8-.8,9.91,9.91,0,0,1-5.2-5.2,10,10,0,0,1-.8-3.8,9.21,9.21,0,0,1,.8-3.8,9.91,9.91,0,0,1,5.2-5.2,8.38,8.38,0,0,1,3.8-.8Zm0,3.9a5.23,5.23,0,0,0-1.8.3,8,8,0,0,0-1.6.8A8,8,0,0,0,93,21.4a4.81,4.81,0,0,0-.8,1.6h11.1a5.07,5.07,0,0,0-.9-1.6,8,8,0,0,0-1.3-1.3A6.08,6.08,0,0,0,97.7,19Zm31.8-3.9V32.8a10,10,0,0,1-.8,3.8,9.91,9.91,0,0,1-5.2,5.2,9.43,9.43,0,0,1-7.6,0,9.45,9.45,0,0,1-3.1-2.1l2.8-2.8a6.41,6.41,0,0,0,1.9,1.3,5.54,5.54,0,0,0,4.6,0,5,5,0,0,0,1.9-1.3,6.41,6.41,0,0,0,1.3-1.9,5.93,5.93,0,0,0,.5-2.3,12.47,12.47,0,0,1-2.8,1.5,11.27,11.27,0,0,1-3.2.5,10,10,0,0,1-3.8-.8,9.91,9.91,0,0,1-5.2-5.2,9.42,9.42,0,0,1,0-7.6,9.91,9.91,0,0,1,5.2-5.2,10,10,0,0,1,3.8-.8,11.27,11.27,0,0,1,3.2.5,8.48,8.48,0,0,1,2.8,1.5v-2h3.7Zm-9.8,15.7a5.93,5.93,0,0,0,2.3-.5,5,5,0,0,0,1.9-1.3,6.41,6.41,0,0,0,1.3-1.9,5.54,5.54,0,0,0,0-4.6,5.86,5.86,0,0,0-1.3-1.9,6.41,6.41,0,0,0-1.9-1.3,5.54,5.54,0,0,0-4.6,0,5.86,5.86,0,0,0-1.9,1.3,6.41,6.41,0,0,0-1.3,1.9,5.54,5.54,0,0,0,0,4.6,5.86,5.86,0,0,0,1.3,1.9,6.41,6.41,0,0,0,1.9,1.3A4.56,4.56,0,0,0,119.7,30.8ZM135.3,6.4a3.6,3.6,0,0,1,1.1.2,2.36,2.36,0,0,1,.9.6,1.46,1.46,0,0,1,.6.9,3.59,3.59,0,0,1,.2,1.1,3.6,3.6,0,0,1-.2,1.1,2.36,2.36,0,0,1-.6.9,2.36,2.36,0,0,1-.9.6,3.59,3.59,0,0,1-1.1.2,4.25,4.25,0,0,1-1.1-.2,2.36,2.36,0,0,1-.9-.6,4.7,4.7,0,0,1-.6-.9,3.59,3.59,0,0,1-.2-1.1,4.25,4.25,0,0,1,.2-1.1,2.36,2.36,0,0,1,.6-.9,2,2,0,0,1,.9-.6A5.16,5.16,0,0,1,135.3,6.4Zm-1.9,8.7h3.9V34.8h-3.9Zm23.3,8.3a5,5,0,0,1,1.9,1.3,8,8,0,0,1,1.3,1.9,5.54,5.54,0,0,1,0,4.6,5.86,5.86,0,0,1-1.3,1.9,6.41,6.41,0,0,1-1.9,1.3,5.93,5.93,0,0,1-2.3.5H140.6v-4h13.8a1.2,1.2,0,0,0,.8-.2c.2-.1.5-.2.6-.4a2.09,2.09,0,0,0,.4-.6,1.88,1.88,0,0,0,.2-.8,2.35,2.35,0,0,0-.2-.8c-.1-.2-.2-.5-.4-.6a2.09,2.09,0,0,0-.6-.4,1.88,1.88,0,0,0-.8-.2h-7.9a5.93,5.93,0,0,1-2.3-.5,5,5,0,0,1-1.9-1.3,6.41,6.41,0,0,1-1.3-1.9,5.54,5.54,0,0,1,0-4.6,5.86,5.86,0,0,1,1.3-1.9,6.41,6.41,0,0,1,1.9-1.3,5.93,5.93,0,0,1,2.3-.5h9.9v4h-9.9a2.35,2.35,0,0,0-.8.2c-.2.1-.5.2-.6.4a2.09,2.09,0,0,0-.4.6,1.88,1.88,0,0,0-.2.8,2.35,2.35,0,0,0,.2.8c.1.2.2.5.4.6a2.09,2.09,0,0,0,.6.4,1.88,1.88,0,0,0,.8.2h7.9A5.93,5.93,0,0,1,156.7,23.4ZM168.2,19v7.9a4,4,0,0,0,.3,1.5,5.67,5.67,0,0,0,.8,1.3,4.18,4.18,0,0,0,1.2.8,4,4,0,0,0,1.5.3v4a8.15,8.15,0,0,1-3.1-.6,8.08,8.08,0,0,1-4.2-4.2,8.15,8.15,0,0,1-.6-3.1V19h-3.9V15.1h3.9V7.2H168v7.9h3.9V19h-3.7ZM184,15.1a10.06,10.06,0,0,1,3.9.8,9.91,9.91,0,0,1,5.2,5.2,10,10,0,0,1,.8,3.8v2H178.5a8,8,0,0,0,.8,1.6,4.89,4.89,0,0,0,1.3,1.2,8,8,0,0,0,1.6.8,5.66,5.66,0,0,0,1.8.3,4.56,4.56,0,0,0,2.3-.5,5.86,5.86,0,0,0,1.9-1.3l2.8,2.8a9.45,9.45,0,0,1-3.1,2.1,10.06,10.06,0,0,1-3.9.8,9.57,9.57,0,0,1-3.8-.8,9.91,9.91,0,0,1-5.2-5.2,10,10,0,0,1-.8-3.8,9.21,9.21,0,0,1,.8-3.8,9.91,9.91,0,0,1,5.2-5.2,7.86,7.86,0,0,1,3.8-.8Zm0,3.9a5.23,5.23,0,0,0-1.8.3,8,8,0,0,0-1.6.8,8,8,0,0,0-1.3,1.3,4.81,4.81,0,0,0-.8,1.6h11.1a5.07,5.07,0,0,0-.9-1.6,8,8,0,0,0-1.3-1.3,4.81,4.81,0,0,0-1.6-.8A5.66,5.66,0,0,0,184,19Zm22.5-3.9a9.57,9.57,0,0,1,3.8.8,9.45,9.45,0,0,1,3.1,2.1l-2.8,2.8a6.41,6.41,0,0,0-1.9-1.3,5.93,5.93,0,0,0-2.3-.5,6.44,6.44,0,0,0-2.4.5,5.86,5.86,0,0,0-1.9,1.3,6.41,6.41,0,0,0-1.3,1.9,5.93,5.93,0,0,0-.5,2.3v9.8h-3.9V15.1h3.9v2.1a11.74,11.74,0,0,1,2.7-1.5,11.2,11.2,0,0,1,3.5-.6Zm21.9,1a5.42,5.42,0,0,0,.8-3.3,5.86,5.86,0,1,0-11.7.7l3.9-.2a2,2,0,1,1,2.1,1.8l.2,4a5.86,5.86,0,1,1-5.5,6.2l-3.9.2a9.82,9.82,0,1,0,19.6-1.2A10.16,10.16,0,0,0,228.4,16.1Zm18.7-.8,5.2-5.2-2.8-2.8L238.8,18a9.67,9.67,0,0,0-2.9,6.9,9.8,9.8,0,0,0,19.6,0,9.54,9.54,0,0,0-8.4-9.6Zm-1.4,15.6a5.91,5.91,0,0,1-5.9-5.9,5.85,5.85,0,0,1,5.9-5.9,5.91,5.91,0,0,1,5.9,5.9A5.85,5.85,0,0,1,245.7,30.9Zm22.7-15.8h-5.9V11.2h11.8v-4H258.6V19h9.9a5.9,5.9,0,1,1-5.9,5.9h-3.9a9.85,9.85,0,1,0,19.7,0,10.06,10.06,0,0,0-10-9.8Z" style="fill:#fff"/></svg>